<svg xmlns="http://www.w3.org/2000/svg" width="13.777" height="13.777" viewBox="0 0 13.777 13.777">
  <g id="Group_914_without_highlight" data-name="Group 914 without highlight" transform="translate(-36.111 -350.111)">
    <path id="noun-sheet-3492638" d="M79.472,0a.861.861,0,0,1,.861.861V11.194a.861.861,0,0,1-.861.861h-8.18a.431.431,0,0,0,0,.861H82.916V2.583H81.625a.431.431,0,1,1,0-.861h1.292a.861.861,0,0,1,.861.861V12.916a.861.861,0,0,1-.861.861H71.292a1.292,1.292,0,0,1,0-2.583h8.18V.861h-8.18a.43.43,0,0,0-.431.431V9.9A.431.431,0,0,1,70,9.9V1.292A1.292,1.292,0,0,1,71.292,0Z" transform="translate(-33.889 350.111)"/>
  </g>
</svg>
