<svg xmlns="http://www.w3.org/2000/svg" width="16.928" height="12.244" viewBox="0 0 16.928 12.244">
  <g id="Financial_arrow" data-name="Financial arrow" transform="translate(-674.001 -624.756)">
    <path id="Icon_ionic-ios-arrow-back" data-name="Icon ionic-ios-arrow-back" d="M16.09,12.251,11.5,7.67a.866.866,0,0,1,1.227-1.223l5.2,5.191a.864.864,0,0,1,.025,1.194L12.735,18.06a.866.866,0,0,1-1.227-1.223Z" transform="translate(662.75 618.688)" fill="#2ab1da"/>
    <path id="Icon_ionic-ios-arrow-back-2" data-name="Icon ionic-ios-arrow-back" d="M16.14,12.314,11.508,7.685a.875.875,0,1,1,1.239-1.236L18,11.694a.873.873,0,0,1,.026,1.207l-5.271,5.282a.875.875,0,1,1-1.239-1.236Z" transform="translate(672.678 618.563)" fill="#2ab1da"/>
  </g>
</svg>
