<svg xmlns="http://www.w3.org/2000/svg" width="26.691" height="29.218" viewBox="0 0 26.691 29.218">
  <defs>
    <style>
      .cls-1 {
        fill: #377d22;
      }
    </style>
  </defs>
  <g id="Group_482" data-name="Group 482" transform="translate(-7227 -2448)">
    <g id="term_2_" data-name="term (2)" transform="translate(7228.998 2448)">
      <path id="Path_141" data-name="Path 141" class="cls-1" d="M30.393,0h-.866a1.306,1.306,0,0,0-1.3,1.309V14.944a.43.43,0,0,0,.08.249l1.25,3.16a.433.433,0,0,0,.806,0l1.25-3.16a.43.43,0,0,0,.08-.249c0-.006,0-.011,0-.017V1.309A1.306,1.306,0,0,0,30.393,0Zm.433,14.512H29.093V2.6h1.733ZM16.1,23.176a4.549,4.549,0,1,0-4.549,4.549A4.549,4.549,0,0,0,16.1,23.176Zm-4.549,3.682a3.682,3.682,0,1,1,3.682-3.682,3.682,3.682,0,0,1-3.682,3.682Z" transform="translate(-7)"/>
      <path id="Path_143" data-name="Path 143" class="cls-1" d="M45.858,19.471h-.011a1.316,1.316,0,0,1-.22.02,1.293,1.293,0,0,1-1.208-.821l-.878-2.218a.481.481,0,0,1-.08.006H29.6a.433.433,0,1,1,0-.866H43.2v-.011a1.289,1.289,0,0,1-.168-.639v-.217H29.6a.433.433,0,1,1,0-.866H43.028V13H29.6a.433.433,0,1,1,0-.866H43.028v-.866H29.6a.433.433,0,1,1,0-.866H43.028V9.53H29.6a.433.433,0,1,1,0-.866H43.028V7.8H29.6a.433.433,0,1,1,0-.866H43.028v-.87H29.6a.433.433,0,1,1,0-.866H43.028V1.309a2.181,2.181,0,0,1,.03-.346l-.016-.1h.031a2.159,2.159,0,0,1,.06-.226A.141.141,0,0,1,43.148.6Q43.179.5,43.22.414l.014-.029a1.505,1.505,0,0,1,.1-.187L43.34.19A2.179,2.179,0,0,1,43.468,0H31.312a.816.816,0,0,0-.131.007.4.4,0,0,0-.314.073,1.294,1.294,0,0,0-.473.3L27.381,3.393A1.291,1.291,0,0,0,27,4.312V17.766c.072,0,.144-.006.217-.006a5.411,5.411,0,0,1,3.728,9.34l-.009.008a5.451,5.451,0,0,1-.787.619H44.761a1.3,1.3,0,0,0,1.3-1.3v-7.01h0a1.294,1.294,0,0,1-.2.054ZM34.364,3.465H38.7a.433.433,0,0,1,0,.866H34.364a.433.433,0,0,1,0-.866Zm9.964,17.328a.433.433,0,0,1-.433.433H36.314a.433.433,0,0,1,0-.866H43.9a.433.433,0,0,1,.433.433ZM30.682,1.316V2.99a.476.476,0,0,1-.476.476H28.533ZM29.6,18.194a.433.433,0,1,1,0-.866H43.461a.433.433,0,0,1,0,.866Zm14.512,6.065h-7.8a.433.433,0,0,1,0-.866h7.8a.433.433,0,0,1,0,.866Z" transform="translate(-22.668)"/>
    </g>
    <path id="Icon_awesome-pause-circle" data-name="Icon awesome-pause-circle" class="cls-1" d="M6.672.563a6.109,6.109,0,1,0,6.109,6.109A6.109,6.109,0,0,0,6.672.563Zm-.394,8.08a.4.4,0,0,1-.394.394H4.7a.4.4,0,0,1-.394-.394V4.7A.4.4,0,0,1,4.7,4.307H5.883a.4.4,0,0,1,.394.394Zm2.759,0a.4.4,0,0,1-.394.394H7.46a.4.4,0,0,1-.394-.394V4.7a.4.4,0,0,1,.394-.394H8.642a.4.4,0,0,1,.394.394Z" transform="translate(7226.437 2464.437)"/>
  </g>
</svg>
