<svg xmlns="http://www.w3.org/2000/svg" xmlns:xlink="http://www.w3.org/1999/xlink" width="104.321" height="73.639" viewBox="0 0 104.321 73.639">
  <defs>
    <filter id="Rectangle_3456" x="0" y="1.367" width="104.321" height="72.272" filterUnits="userSpaceOnUse">
      <feOffset dy="3" input="SourceAlpha"/>
      <feGaussianBlur stdDeviation="3" result="blur"/>
      <feFlood flood-opacity="0.161"/>
      <feComposite operator="in" in2="blur"/>
      <feComposite in="SourceGraphic"/>
    </filter>
    <filter id="Rectangle_3455" x="1.57" y="2.861" width="100.79" height="69.294" filterUnits="userSpaceOnUse">
      <feOffset dy="3" input="SourceAlpha"/>
      <feGaussianBlur stdDeviation="3" result="blur-2"/>
      <feFlood flood-opacity="0.161"/>
      <feComposite operator="in" in2="blur-2"/>
      <feComposite in="SourceGraphic"/>
    </filter>
  </defs>
  <g id="Group_1410" data-name="Group 1410" transform="translate(19586.16 10550)">
    <g id="Ellipse_450" data-name="Ellipse 450" transform="translate(-19568 -10550)" fill="none" stroke="#c15050" stroke-width="4">
      <circle cx="34" cy="34" r="34" stroke="none"/>
      <circle cx="34" cy="34" r="32" fill="none"/>
    </g>
    <g id="Ellipse_452" data-name="Ellipse 452" transform="translate(-19555 -10537)" fill="none" stroke="#c15050" stroke-width="1">
      <circle cx="21.5" cy="21.5" r="21.5" stroke="none"/>
      <circle cx="21.5" cy="21.5" r="21" fill="none"/>
    </g>
    <g id="Ellipse_451" data-name="Ellipse 451" transform="translate(-19561 -10543)" fill="none" stroke="#c15050" stroke-width="0.2" stroke-dasharray="3">
      <circle cx="27" cy="27" r="27" stroke="none"/>
      <circle cx="27" cy="27" r="26.9" fill="none"/>
    </g>
    <g transform="matrix(1, 0, 0, 1, -19586.16, -10550)" filter="url(#Rectangle_3456)">
      <rect id="Rectangle_3456-2" data-name="Rectangle 3456" width="83" height="25" rx="2" transform="matrix(0.93, -0.37, 0.37, 0.93, 9, 38.46)" fill="#c15050"/>
    </g>
    <g transform="matrix(1, 0, 0, 1, -19586.16, -10550)" filter="url(#Rectangle_3455)">
      <g id="Rectangle_3455-2" data-name="Rectangle 3455" transform="matrix(0.93, -0.37, 0.37, 0.93, 10.57, 38.83)" fill="none" stroke="#fff" stroke-width="1">
        <rect width="80" height="23" rx="2" stroke="none"/>
        <rect x="0.5" y="0.5" width="79" height="22" rx="1.5" fill="none"/>
      </g>
    </g>
    <text id="MISMATCH" transform="matrix(0.927, -0.375, 0.375, 0.927, -19566.625, -10497.504)" fill="#fff" font-size="14" font-family="Gopher" font-weight="700"><tspan x="0" y="0">MISMATCH</tspan></text>
  </g>
</svg>
