<svg xmlns="http://www.w3.org/2000/svg" width="150.999" height="151" viewBox="0 0 150.999 151">
  <g id="Group_864" data-name="Group 864" transform="translate(-1609 -260)">
    <g id="Group_651" data-name="Group 651" transform="translate(13 -8)">
      <g id="Ellipse_90" data-name="Ellipse 90" transform="translate(1634 268)" fill="none" stroke="rgba(112,112,112,0.49)" stroke-width="1">
        <circle cx="37.5" cy="37.5" r="37.5" stroke="none"/>
        <circle cx="37.5" cy="37.5" r="37" fill="none"/>
      </g>
      <g id="Subtraction_1" data-name="Subtraction 1" transform="translate(5758 -1236)" fill="none">
        <path d="M-4011,1655h-151a75.955,75.955,0,0,1,5.933-29.582,76.16,76.16,0,0,1,6.961-12.91,76.45,76.45,0,0,1,9.219-11.248,76.15,76.15,0,0,1,11.173-9.28,75.332,75.332,0,0,1,12.825-7.007A74.6,74.6,0,0,1-4086.5,1579a74.6,74.6,0,0,1,29.388,5.973,75.354,75.354,0,0,1,12.825,7.007,76.149,76.149,0,0,1,11.174,9.28,76.443,76.443,0,0,1,9.219,11.248,76.171,76.171,0,0,1,6.961,12.91A75.955,75.955,0,0,1-4011,1655Z" stroke="none"/>
        <path d="M -4012.0068359375 1653.99951171875 C -4012.13232421875 1644.225952148438 -4014.098388671875 1634.745727539062 -4017.85546875 1625.804565429688 C -4019.72216796875 1621.361694335938 -4022.033447265625 1617.075439453125 -4024.724853515625 1613.06494140625 C -4027.3896484375 1609.094116210938 -4030.45068359375 1605.359497070312 -4033.822998046875 1601.96484375 C -4037.1953125 1598.570190429688 -4040.9052734375 1595.489013671875 -4044.849609375 1592.806762695312 C -4048.83251953125 1590.098266601562 -4053.08984375 1587.772216796875 -4057.50390625 1585.892944335938 C -4066.687255859375 1581.98291015625 -4076.443115234375 1580.000366210938 -4086.50048828125 1580.000366210938 C -4096.5576171875 1580.000366210938 -4106.3134765625 1581.98291015625 -4115.49658203125 1585.892944335938 C -4119.91064453125 1587.772338867188 -4124.16845703125 1590.098510742188 -4128.150390625 1592.806762695312 C -4132.09521484375 1595.489501953125 -4135.80517578125 1598.57080078125 -4139.1767578125 1601.96484375 C -4142.5478515625 1605.358276367188 -4145.60888671875 1609.092895507812 -4148.27490234375 1613.06494140625 C -4150.96533203125 1617.072998046875 -4153.2763671875 1621.359252929688 -4155.14453125 1625.804565429688 C -4158.9013671875 1634.74609375 -4160.86767578125 1644.226806640625 -4160.9931640625 1653.99951171875 L -4012.0068359375 1653.99951171875 M -4011.00048828125 1654.99951171875 L -4161.99951171875 1654.99951171875 C -4161.99951171875 1644.738403320312 -4160.0029296875 1634.785888671875 -4156.06640625 1625.417236328125 C -4154.173828125 1620.913330078125 -4151.83203125 1616.569946289062 -4149.10546875 1612.507690429688 C -4146.404296875 1608.483276367188 -4143.302734375 1604.699096679688 -4139.88623046875 1601.260009765625 C -4136.4697265625 1597.82080078125 -4132.71044921875 1594.698486328125 -4128.712890625 1591.979858398438 C -4124.67724609375 1589.235229492188 -4120.3623046875 1586.877685546875 -4115.88818359375 1584.972900390625 C -4106.58056640625 1581.009765625 -4096.69287109375 1579.000366210938 -4086.50048828125 1579.000366210938 C -4076.307861328125 1579.000366210938 -4066.420166015625 1581.009765625 -4057.112060546875 1584.972900390625 C -4052.638671875 1586.87744140625 -4048.32373046875 1589.234985351562 -4044.287353515625 1591.979858398438 C -4040.289794921875 1594.6982421875 -4036.530517578125 1597.820556640625 -4033.113525390625 1601.260009765625 C -4029.69677734375 1604.699584960938 -4026.594970703125 1608.48388671875 -4023.89453125 1612.507690429688 C -4021.16748046875 1616.5712890625 -4018.825439453125 1620.91455078125 -4016.93359375 1625.417236328125 C -4012.996826171875 1634.786010742188 -4011.000732421875 1644.738647460938 -4011.00048828125 1654.99853515625 L -4011.00048828125 1654.99951171875 Z" stroke="none" fill="rgba(112,112,112,0.49)"/>
      </g>
    </g>
  </g>
</svg>
