<svg xmlns="http://www.w3.org/2000/svg" xmlns:xlink="http://www.w3.org/1999/xlink" width="47" height="47" viewBox="0 0 47 47">
  <defs>
    <filter id="Ellipse_84" x="0" y="0" width="47" height="47" filterUnits="userSpaceOnUse">
      <feOffset dy="3" input="SourceAlpha"/>
      <feGaussianBlur stdDeviation="3" result="blur"/>
      <feFlood flood-opacity="0.161"/>
      <feComposite operator="in" in2="blur"/>
      <feComposite in="SourceGraphic"/>
    </filter>
  </defs>
  <g id="Group_609" data-name="Group 609" transform="translate(-377 -658)">
    <g transform="matrix(1, 0, 0, 1, 377, 658)" filter="url(#Ellipse_84)">
      <circle id="Ellipse_84-2" data-name="Ellipse 84" cx="14.5" cy="14.5" r="14.5" transform="translate(9 6)" fill="#efac4e"/>
    </g>
    <g id="Ellipse_85" data-name="Ellipse 85" transform="translate(390 668)" fill="none" stroke="#fff" stroke-width="1">
      <circle cx="10.5" cy="10.5" r="10.5" stroke="none"/>
      <circle cx="10.5" cy="10.5" r="10" fill="none"/>
    </g>
    <path id="Icon_awesome-exclamation" data-name="Icon awesome-exclamation" d="M5.028,10.538A1.951,1.951,0,1,1,3.076,8.586,1.954,1.954,0,0,1,5.028,10.538ZM1.351.615l.332,6.635a.585.585,0,0,0,.585.556H3.886a.585.585,0,0,0,.585-.556L4.8.615A.585.585,0,0,0,4.217,0H1.936A.585.585,0,0,0,1.351.615Z" transform="translate(397.423 672.255)" fill="#fff"/>
  </g>
</svg>
