<svg xmlns="http://www.w3.org/2000/svg" width="37.7" height="43.096" viewBox="0 0 37.7 43.096">
  <defs>
    <style>
      .cls-1 {
        fill: #377d22;
      }
    </style>
  </defs>
  <g id="Group_481" data-name="Group 481" transform="translate(-7046 -2761)">
    <path id="Icon_material-report" data-name="Icon material-report" class="cls-1" d="M16.407,4.5H9.429L4.5,9.429v6.978l4.929,4.929h6.978l4.929-4.929V9.429ZM12.918,17.876a1.214,1.214,0,1,1,.86-.356A1.216,1.216,0,0,1,12.918,17.876Zm.935-4.022h-1.87V8.242h1.871Z" transform="translate(7051.932 2772.63)"/>
    <path id="Icon_metro-file-empty" data-name="Icon metro-file-empty" class="cls-1" d="M40.428,11.568a38.164,38.164,0,0,0-3.669-4.2,38.166,38.166,0,0,0-4.2-3.669c-2.17-1.592-3.223-1.776-3.826-1.776H7.865A3.37,3.37,0,0,0,4.5,5.3V41.653a3.37,3.37,0,0,0,3.366,3.366H38.837A3.37,3.37,0,0,0,42.2,41.653V15.394c0-.6-.184-1.656-1.776-3.826ZM34.855,9.276A36.731,36.731,0,0,1,37.909,12.7H31.431V6.223a36.693,36.693,0,0,1,3.424,3.054ZM39.51,41.653a.682.682,0,0,1-.673.673H7.865a.682.682,0,0,1-.673-.673V5.3a.682.682,0,0,1,.673-.673H28.737v9.426A1.347,1.347,0,0,0,30.084,15.4H39.51Z" transform="translate(7041.5 2759.077)"/>
  </g>
</svg>
