<svg xmlns="http://www.w3.org/2000/svg" width="41" height="57" viewBox="0 0 41 57">
  <g id="Group_514" data-name="Group 514" transform="translate(-60 -5)">
    <ellipse id="Ellipse_33" data-name="Ellipse 33" cx="20.5" cy="28.5" rx="20.5" ry="28.5" transform="translate(60 5)" fill="#fff"/>
    <path id="Path_13" data-name="Path 13" d="M2335.123,2271.717l1.769,4.775s-9.476,5.025-14.29,8.164c-2.354,1.535-.931,2.543.832,4.126,1.356,1.229,3.944,3.02,4.8,3.931,1.368,1.444,2.814,4.05.335,6.238-4.814,4.25-19.617,11.318-19.617,11.318l-2.653-5.306,11.142-6.012s4.979-2.655,2.677-6.238-11.9-7.2-4.29-11.8,19.3-9.2,19.3-9.2" transform="translate(-2239 -2254.437)" fill="none" stroke="#016cde" stroke-width="1"/>
    <path id="Path_12" data-name="Path 12" d="M2336.08,2271.717l1.827,4.933s-9.791,5.191-14.764,8.435,3.246,6.483,4.974,8.325c1.414,1.492,3.75,4.184,1.189,6.446-4.974,4.391-20.268,11.694-20.268,11.694l-2.741-5.482,11.511-6.212s5.145-2.743,2.767-6.446-12.29-7.44-4.433-12.191,19.938-9.5,19.938-9.5" transform="translate(-2242 -2257.717)" fill="#016cde" stroke="#016cde" stroke-width="1"/>
  </g>
</svg>
