<svg xmlns="http://www.w3.org/2000/svg" xmlns:xlink="http://www.w3.org/1999/xlink" width="23.834" height="28.236" viewBox="0 0 23.834 28.236">
  <defs>
    <filter id="Path_223">
      <feOffset dy="3" input="SourceAlpha"/>
      <feGaussianBlur stdDeviation="3" result="blur"/>
      <feFlood flood-opacity="0.161" result="color"/>
      <feComposite operator="out" in="SourceGraphic" in2="blur"/>
      <feComposite operator="in" in="color"/>
      <feComposite operator="in" in2="SourceGraphic"/>
    </filter>
  </defs>
  <g id="Group_619" data-name="Group 619" transform="translate(-3491 -1507)">
    <g id="csv" transform="translate(3491 1507)">
      <g data-type="innerShadowGroup">
        <path id="Path_223-2" data-name="Path 223" d="M33.016,10.842H26.662V4.489A.489.489,0,0,0,26.173,4H12.489A.489.489,0,0,0,12,4.489V18.173a.489.489,0,0,0,.489.489h13.2v7.82h-13.2a.489.489,0,0,0-.489.489v3.91a.489.489,0,0,0,.489.489H33.016a.489.489,0,0,0,.489-.489V11.331A.489.489,0,0,0,33.016,10.842Z" transform="translate(-10.045 -3.508)" fill="#eee"/>
        <g transform="matrix(1, 0, 0, 1, 0, 0)" filter="url(#Path_223)">
          <path id="Path_223-3" data-name="Path 223" d="M33.016,10.842H26.662V4.489A.489.489,0,0,0,26.173,4H12.489A.489.489,0,0,0,12,4.489V18.173a.489.489,0,0,0,.489.489h13.2v7.82h-13.2a.489.489,0,0,0-.489.489v3.91a.489.489,0,0,0,.489.489H33.016a.489.489,0,0,0,.489-.489V11.331A.489.489,0,0,0,33.016,10.842Z" transform="translate(-10.05 -3.51)" fill="#fff"/>
        </g>
        <path id="Path_223-4" data-name="Path 223" d="M33.016,10.842H26.662V4.489A.489.489,0,0,0,26.173,4H12.489A.489.489,0,0,0,12,4.489V18.173a.489.489,0,0,0,.489.489h13.2v7.82h-13.2a.489.489,0,0,0-.489.489v3.91a.489.489,0,0,0,.489.489H33.016a.489.489,0,0,0,.489-.489V11.331A.489.489,0,0,0,33.016,10.842Z" transform="translate(-10.045 -3.508)" fill="none" stroke="rgba(112,112,112,0.23)" stroke-width="0.75"/>
      </g>
      <rect id="Rectangle_2435" data-name="Rectangle 2435" width="17" height="10" rx="1" transform="translate(0 14)" fill="#4aacae"/>
      <path id="Path_224" data-name="Path 224" d="M47.678,10.981,40.836,4.139A.489.489,0,0,0,40,4.486v6.842a.489.489,0,0,0,.489.489h6.842a.489.489,0,0,0,.347-.836Z" transform="translate(-24.363 -3.994)" fill="#e0e0e0"/>
      <path id="Path_225" data-name="Path 225" d="M16.206,40.508h.88a1.54,1.54,0,0,1-.293.743,1.574,1.574,0,0,1-.586.469,1.887,1.887,0,0,1-.787.171,1.75,1.75,0,0,1-1.354-.562,2.048,2.048,0,0,1-.528-1.466,2.1,2.1,0,0,1,.518-1.466,1.7,1.7,0,0,1,1.315-.577A1.72,1.72,0,0,1,16.7,38.4a1.676,1.676,0,0,1,.386.86h-.875a.767.767,0,0,0-.288-.43.933.933,0,0,0-.538-.152.909.909,0,0,0-.728.332,1.3,1.3,0,0,0-.274.855,1.271,1.271,0,0,0,.283.855.919.919,0,0,0,.733.327A.811.811,0,0,0,16.206,40.508Zm1.637.147h.806a.67.67,0,0,0,.728.528.694.694,0,0,0,.43-.122.391.391,0,0,0,.161-.327.376.376,0,0,0-.269-.381,3.548,3.548,0,0,1-.489-.147,2.879,2.879,0,0,1-.87-.342.977.977,0,0,1-.4-.831,1.109,1.109,0,0,1,.367-.87,1.393,1.393,0,0,1,.977-.327,1.54,1.54,0,0,1,.977.3.977.977,0,0,1,.4.782h-.816a.489.489,0,0,0-.552-.381.611.611,0,0,0-.376.108.347.347,0,0,0-.142.288.318.318,0,0,0,.176.3,2.757,2.757,0,0,0,.611.176,2.356,2.356,0,0,1,.772.274,1.061,1.061,0,0,1,.489.933,1.163,1.163,0,0,1-.552,1.036,1.667,1.667,0,0,1-.914.225,1.466,1.466,0,0,1-1.28-.552A1.417,1.417,0,0,1,17.844,40.654Zm4.843,1.163-1.466-3.91H22.1l.953,2.639.816-2.639h.855l-1.3,3.91Z" transform="translate(-10.83 -20.799)" fill="#fff"/>
    </g>
    <path id="Path_226" data-name="Path 226" d="M7.678,6.987.836.145A.489.489,0,0,0,0,.492V7.334a.489.489,0,0,0,.489.489H7.331a.489.489,0,0,0,.347-.836Z" transform="translate(3514.459 1520.199) rotate(180)" fill="rgba(216,206,206,0.35)"/>
  </g>
</svg>
