<svg xmlns="http://www.w3.org/2000/svg" width="21.172" height="26.5" viewBox="0 0 21.172 26.5">
  <g id="noun_recycle_bin_2025338" data-name="noun_recycle bin_2025338" transform="translate(-44.533 -2.5)">
    <g id="Group_524" data-name="Group 524" transform="translate(44.533 2.5)">
      <path id="Path_125" data-name="Path 125" d="M18.795,45.227A1.513,1.513,0,0,0,20.3,46.594H32.686a1.513,1.513,0,0,0,1.506-1.367L35.587,26.9H17.4Zm10.739-13.78a.753.753,0,0,1,1.506,0v10.6a.753.753,0,1,1-1.506,0Zm-3.794,0a.753.753,0,0,1,1.506,0v10.6a.753.753,0,1,1-1.506,0Zm-3.794,0a.753.753,0,0,1,1.506,0v10.6a.753.753,0,0,1-1.506,0Z" transform="translate(-15.894 -20.094)" fill="#999"/>
      <path id="Path_126" data-name="Path 126" d="M31.694,4.759H25.641V4.006A1.5,1.5,0,0,0,24.134,2.5H21.094a1.5,1.5,0,0,0-1.506,1.506v.753H13.506a1.506,1.506,0,0,0,0,3.013H31.666a1.5,1.5,0,0,0,1.506-1.506A1.477,1.477,0,0,0,31.694,4.759Z" transform="translate(-12 -2.5)" fill="#999"/>
    </g>
  </g>
</svg>
