<svg xmlns="http://www.w3.org/2000/svg" width="25.452" height="22.27" viewBox="0 0 25.452 22.27">
  <g id="noun-high-priority-4260096" transform="translate(-126 -84)">
    <path id="Path_338" data-name="Path 338" d="M129.181,96.726a6.37,6.37,0,0,1,6.363-6.363v3.181l1.169-.877,5.194-3.9L135.544,84v3.181a9.544,9.544,0,0,0,0,19.089h4.772v-3.181h-4.772A6.37,6.37,0,0,1,129.181,96.726Z" transform="translate(0)" fill="#e00b0b"/>
    <path id="Path_339" data-name="Path 339" d="M434,140h7.954v3.181H434Z" transform="translate(-290.502 -52.819)" fill="#e00b0b"/>
    <path id="Path_340" data-name="Path 340" d="M434,280h7.954v3.181H434Z" transform="translate(-290.502 -184.865)" fill="#e00b0b"/>
    <path id="Path_341" data-name="Path 341" d="M434,420h7.954v3.181H434Z" transform="translate(-290.502 -316.911)" fill="#e00b0b"/>
  </g>
</svg>
