<svg xmlns="http://www.w3.org/2000/svg" width="19.231" height="20.57" viewBox="0 0 19.231 20.57">
  <g id="Group_937" data-name="Group 937" transform="translate(-33.385 -346.715)">
    <g id="noun-quality-1016137" transform="translate(-61.131 339.307)">
      <path id="Path_349" data-name="Path 349" d="M96.262,14.513a2.2,2.2,0,0,1,.025-1.715,2.163,2.163,0,0,1,1.253-1.162l.146-.053h0a.924.924,0,0,0,.091-.038,1,1,0,0,0,.557-.774.83.83,0,0,0,0-.1v-.194a2.135,2.135,0,0,1,1.135-1.728,2.11,2.11,0,0,1,1.658-.137l.065.021.051.015.1.021h0a1.054,1.054,0,0,0,.211.013,1.073,1.073,0,0,0,.407-.1,1.054,1.054,0,0,0,.338-.253c.027-.03.038-.046.076-.093s.086-.109.133-.16a2.147,2.147,0,0,1,.329-.268,2.078,2.078,0,0,1,1.578-.365,2.047,2.047,0,0,1,.764.3A2.115,2.115,0,0,1,105.5,8a2.346,2.346,0,0,1,.253.3,1.12,1.12,0,0,0,.745.464,1.149,1.149,0,0,0,.542-.044,1.958,1.958,0,0,1,2.338,1.011,1.9,1.9,0,0,1,.184.844v.167a1.376,1.376,0,0,0,0,.143,1.33,1.33,0,0,0,.063.287,1.4,1.4,0,0,0,.774.844,1.636,1.636,0,0,1,.844.764,1.5,1.5,0,0,1,.139.992.966.966,0,0,1-.375.616c-.129.078-.19.038-.186-.112,0-.074.017-.211.017-.344a2.69,2.69,0,0,0-.042-.378.926.926,0,0,0-.633-.766,2.2,2.2,0,0,1-1.546-2.049v-.16a.906.906,0,0,0-.116-.4.956.956,0,0,0-.675-.47.91.91,0,0,0-.422.027c-.015,0-.122.042-.2.059h0a2.151,2.151,0,0,1-.743.059,2.224,2.224,0,0,1-.941-.3,2.185,2.185,0,0,1-.407-.312,2.37,2.37,0,0,1-.171-.184c-.051-.059-.114-.15-.125-.16h0a.937.937,0,0,0-1.464-.021l-.1.131h0a2.1,2.1,0,0,1-.165.188,2.215,2.215,0,0,1-2.3.548.915.915,0,0,0-.422-.044.958.958,0,0,0-.844.844v.114a2.3,2.3,0,0,1-.015.245,2.148,2.148,0,0,1-.11.479,2.17,2.17,0,0,1-1.34,1.331l-.152.053a.422.422,0,0,0-.1.042.862.862,0,0,0-.188.118,1.008,1.008,0,0,0-.279.348,1.028,1.028,0,0,0,0,.892.667.667,0,0,0,.057.1l.034.057.063.1h0a2.018,2.018,0,0,1,.2.422,2.05,2.05,0,0,1,.095.907,2.016,2.016,0,0,1-.3.844c-.038.061-.091.127-.127.177l-.076.1h0a1.306,1.306,0,0,0-.106.234.487.487,0,0,0-.07.1.962.962,0,0,1,.07-.1,1.162,1.162,0,0,0,.287,1.137c.036.034.076.068.114.1a.624.624,0,0,0,.127.082h0a1.284,1.284,0,0,0,.137.065l.072.025.038.015.063.021h0a2.021,2.021,0,0,1,.884.6,2.047,2.047,0,0,1,.456.971,4.074,4.074,0,0,1,.036.46,1.081,1.081,0,0,0,.067.287,1.1,1.1,0,0,0,.871.7,1.041,1.041,0,0,0,.287,0,1.093,1.093,0,0,0,.141-.027l.07-.021.053-.017.065-.021h0A2.081,2.081,0,0,1,103,22.02a1.952,1.952,0,0,1,.184.211l.059.076c.015.019.032.036.046.055h0a1.032,1.032,0,0,0,.211.181,1.068,1.068,0,0,0,1.074.038,1.042,1.042,0,0,0,.224-.162,1.234,1.234,0,0,0,.095-.1l.131-.171h0a2.11,2.11,0,0,1,1.912-.755,2.088,2.088,0,0,1,.251.051l.122.036.072.023h0a1.052,1.052,0,0,0,.249.042,1.067,1.067,0,0,0,.884-.422,1,1,0,0,0,.211-.462.662.662,0,0,0,.015-.129v-.211a2.154,2.154,0,0,1,.1-.492A2.061,2.061,0,0,1,110.2,18.49a1.3,1.3,0,0,0,.363-.177,1.264,1.264,0,0,0,.274-.3,1.161,1.161,0,0,0,.162-.793,1.244,1.244,0,0,0-.129-.386l-.049-.087c-.015-.027-.053-.087-.076-.129a1.81,1.81,0,0,1-.129-.279,1.645,1.645,0,0,1-.042-.985,1.177,1.177,0,0,1,.314-.567.348.348,0,0,1,.291-.118c.156.051.049.314.061.686h0a1.384,1.384,0,0,0,.148.6,1.114,1.114,0,0,0,.089.146c.036.053.059.072.141.19h0a1.957,1.957,0,0,1,.325.669,2.133,2.133,0,0,1-.2,1.561,2.2,2.2,0,0,1-.513.633,2.319,2.319,0,0,1-.711.39.977.977,0,0,0-.633.753.872.872,0,0,0-.015.127v.211a2.131,2.131,0,0,1-.106.582,2.208,2.208,0,0,1-2.618,1.458c-.093-.021-.211-.063-.228-.065a.933.933,0,0,0-.92.249.835.835,0,0,0-.08.095l-.095.082c-.03.04-.063.076-.1.114h0a2.172,2.172,0,0,1-.458.388,2.23,2.23,0,0,1-2.283.046,2.163,2.163,0,0,1-.477-.365,2.131,2.131,0,0,1-.194-.226l-.065-.087a.557.557,0,0,0-.04-.051.949.949,0,0,0-.92-.31l-.063.015-.106.032h0a2.186,2.186,0,0,1-2.787-1.867,1.382,1.382,0,0,0-.011-.211v-.129a1,1,0,0,0-.027-.194.9.9,0,0,0-.479-.61,1.121,1.121,0,0,0-.188-.076,2.359,2.359,0,0,1-.4-.171,2.173,2.173,0,0,1-.806-3.044l.112-.169h0a.859.859,0,0,0,.053-.082.96.96,0,0,0,.019-.93.679.679,0,0,0-.051-.082l-.084-.127h0a2.362,2.362,0,0,1-.213-.388Zm-1.724,10.1a1.052,1.052,0,0,1,.108-.327l.038-.072.021-.034.013-.017.049-.07.2-.278.395-.557h0a4.955,4.955,0,0,1,1.559-1.506c.184-.1.363-.137.445.027h0a.449.449,0,0,1,0,.352c-.308.451-.6.916-.89,1.382l-.435.7-.211.35v.015l.335-.038q.408-.041.816-.063h.314a.953.953,0,0,1,.211,0,1.092,1.092,0,0,1,.762.607c.013.03.027.076.034.093l.019.053.072.211.146.422.291.856c.032.1.032.076.034.08l.055-.091.236-.386c.392-.633.844-1.245,1.291-1.846.249-.335.567-.475.808-.354s.211.5.027.859c-.323.633-.679,1.266-1.055,1.867l-.285.454-.072.114-.032.049-.044.059a.9.9,0,0,1-.1.112,1.145,1.145,0,0,1-1.669-.046,1.1,1.1,0,0,1-.175-.247.805.805,0,0,1-.059-.135,1,1,0,0,1-.036-.114l-.068-.259-.158-.66c-.07-.2-.137-.392-.211-.591l-.158.025-.338.049-.677.089-.338.04h-.091a1.448,1.448,0,0,1-.175,0,1.055,1.055,0,0,1-1.015-1.19Zm2.743.844h0a.12.12,0,0,0,0,.023ZM111.9,21.452c.274.473.565.937.861,1.4l.454.684.211.346.11.173a1.374,1.374,0,0,1,.162.335,1.139,1.139,0,0,1-1.266,1.462l-.211-.042-.4-.087c-.266-.061-.532-.127-.8-.2l-.2-.057-.049-.015h-.049v-.023h0a.046.046,0,0,0-.036-.025l-.4,1.616h0a1.178,1.178,0,0,1-.133.338,1.013,1.013,0,0,1-1.179.422.984.984,0,0,1-.392-.236,1.048,1.048,0,0,1-.146-.173l-.068-.1-.247-.38c-.405-.633-.755-1.3-1.106-1.964-.194-.369-.181-.717.03-.882s.538.025.785.348c.437.567.844,1.156,1.228,1.759l.228.361V26.5l.226-.633q.078-.333.167-.665l.027-.1h0a1.055,1.055,0,0,1,1.055-.749,1.9,1.9,0,0,1,.247.032l.169.03.335.061.671.129.333.068h.034c-.046-.089-.124-.23-.181-.329l-.331-.595h0a4.957,4.957,0,0,1-.675-2.063c-.013-.211.034-.386.211-.39h0a.449.449,0,0,1,.327.148Zm-2.677,5.276-.017.021v-.013Zm.211-.013M112.6,24.73c.023.034.015.013-.011-.038-.021.021-.006.025-.006.04ZM107.48,13.272c.095-.095.1-.285,0-.551h0a2.41,2.41,0,0,0-.243-.422,2.584,2.584,0,0,0-.422-.422,4.581,4.581,0,0,0-1.032-.622,4.75,4.75,0,0,0-1.175-.329,4.586,4.586,0,0,0-1.829.12c-.1.025-.194.065-.293.1h0a2.363,2.363,0,0,0-.287.114,4.624,4.624,0,0,0-2.072,6.61,4.386,4.386,0,0,0,2.616,2.274,4.628,4.628,0,0,0,3.559-.3,4.8,4.8,0,0,0,2.333-2.743,4.92,4.92,0,0,0-.186-3.587,1.107,1.107,0,0,0-.489-.475c-.238-.087-.211.211-.116.578a6,6,0,0,1,.106,1.9,4.853,4.853,0,0,1-.211.949,4.364,4.364,0,0,1-.4.893,3.508,3.508,0,0,1-.747.9,3.533,3.533,0,0,1-.977.623,3.667,3.667,0,0,1-2.245.211,3.73,3.73,0,0,1-1.055-.422,4.262,4.262,0,0,1-.466-.319,4.212,4.212,0,0,1-.4-.392,3.8,3.8,0,0,1-.941-2.03,3.915,3.915,0,0,1,.106-1.12,3.624,3.624,0,0,1,2.257-2.532l.217-.078.211-.053a3.912,3.912,0,0,1,.422-.08,3.807,3.807,0,0,1,.88,0,3.734,3.734,0,0,1,1.652.616c.582.361,1,.808,1.23.6Zm-3.677,4.22.013-.013.025-.027.049-.055.1-.11a9.741,9.741,0,0,0,.732-.909l.224-.186a13.531,13.531,0,0,0,1.335-1.257.422.422,0,0,0-.027-.578.462.462,0,0,0-.559-.211,3.971,3.971,0,0,0-.888.578,8.585,8.585,0,0,0-1.1,1.293,2.55,2.55,0,0,0-.268.177,6,6,0,0,0-1.011-.892c-.042-.032-.169.025-.23.082h0a.422.422,0,0,0-.11.395,2.026,2.026,0,0,0,.369.96,3.041,3.041,0,0,1,.281.46c.04.078.076.16.112.24l.943.04Z" transform="translate(0)" fill="#1d2327"/>
    </g>
  </g>
</svg>
