<svg xmlns="http://www.w3.org/2000/svg" width="15.096" height="15.096" viewBox="0 0 15.096 15.096">
  <g id="Group_915" data-name="Group 915" transform="translate(-35.452 -349.452)">
    <path id="Icon_awesome-history" data-name="Icon awesome-history" d="M15.658,8.1A7.548,7.548,0,0,1,3.373,13.987.73.73,0,0,1,3.317,12.9l.343-.343a.732.732,0,0,1,.971-.06,5.6,5.6,0,1,0-.357-8.47L5.818,5.575a.487.487,0,0,1-.344.831H1.049a.487.487,0,0,1-.487-.487V1.495a.487.487,0,0,1,.831-.344l1.5,1.5A7.548,7.548,0,0,1,15.658,8.1Zm-5.506,2.4.3-.384a.73.73,0,0,0-.128-1.025L9.084,8.121V4.945a.73.73,0,0,0-.73-.73H7.867a.73.73,0,0,0-.73.73V9.074l1.991,1.548a.73.73,0,0,0,1.025-.128Z" transform="translate(34.89 348.89)" fill="#333"/>
  </g>
</svg>
