<svg xmlns="http://www.w3.org/2000/svg" width="39" height="39" viewBox="0 0 39 39">
  <g id="Group_15" data-name="Group 15" transform="translate(-1267 -310)">
    <g id="Rectangle_16" data-name="Rectangle 16" transform="translate(1267 310)" fill="#fff" stroke="#707070" stroke-width="1" opacity="0">
      <rect width="39" height="39" stroke="none"/>
      <rect x="0.5" y="0.5" width="38" height="38" fill="none"/>
    </g>
    <g id="Group_14" data-name="Group 14" transform="translate(-31 2)">
      <path id="Icon_awesome-certificate" data-name="Icon awesome-certificate" d="M28.664,15.995l2.874-2.813a1.489,1.489,0,0,0-.667-2.521l-3.916-1,1.1-3.876a1.514,1.514,0,0,0-1.854-1.854l-3.875,1.1-1-3.917a1.5,1.5,0,0,0-2.52-.667L16,3.348,13.188.452a1.5,1.5,0,0,0-2.52.667l-1,3.917-3.875-1.1A1.514,1.514,0,0,0,3.94,5.786l1.1,3.876-3.916,1a1.489,1.489,0,0,0-.667,2.521l2.874,2.813L.462,18.808a1.489,1.489,0,0,0,.667,2.521l3.916,1L3.94,26.2a1.514,1.514,0,0,0,1.854,1.854l3.875-1.1,1,3.917a1.486,1.486,0,0,0,2.52.667L16,28.663l2.812,2.875a1.492,1.492,0,0,0,2.52-.667l1-3.917,3.875,1.1A1.514,1.514,0,0,0,28.06,26.2l-1.1-3.876,3.916-1a1.489,1.489,0,0,0,.666-2.521l-2.874-2.813Z" transform="translate(1302 312)" fill="#377d22"/>
      <path id="Icon_awesome-rupee-sign" data-name="Icon awesome-rupee-sign" d="M8.889,4.1a.346.346,0,0,0,.346-.346V2.6a.346.346,0,0,0-.346-.346H.346A.346.346,0,0,0,0,2.6V3.888a.346.346,0,0,0,.346.346H2.807a2.082,2.082,0,0,1,1.76.786H.346A.346.346,0,0,0,0,5.367V6.521a.346.346,0,0,0,.346.346H4.928A1.994,1.994,0,0,1,2.771,8.56H.346A.346.346,0,0,0,0,8.906v1.53a.346.346,0,0,0,.111.254l4.763,4.4a.346.346,0,0,0,.235.092H7.492a.346.346,0,0,0,.235-.6L3.373,10.559A3.954,3.954,0,0,0,7.365,6.868H8.889a.346.346,0,0,0,.346-.346V5.367a.346.346,0,0,0-.346-.346H7.2A3.953,3.953,0,0,0,6.784,4.1Z" transform="translate(1313.493 319.19)" fill="#fff"/>
    </g>
  </g>
</svg>
