<svg xmlns="http://www.w3.org/2000/svg" width="34" height="37" viewBox="0 0 34 37">
  <g id="Group_933" data-name="Group 933" transform="translate(-694 -334)">
    <g id="Rectangle_2297" data-name="Rectangle 2297" transform="translate(694 334)" fill="none" stroke="#58c8d9" stroke-width="2" opacity="0.93">
      <rect width="34" height="37" rx="5" stroke="none"/>
      <rect x="1" y="1" width="32" height="35" rx="4" fill="none"/>
    </g>
    <g id="noun-save-2644413" transform="translate(271.543 320)">
      <path id="Path_347" data-name="Path 347" d="M149.014,36.721a1.111,1.111,0,0,1-.55-.143,1.217,1.217,0,0,1-.622-1.052V15.2a1.184,1.184,0,0,1,1.2-1.2h14.925a1.184,1.184,0,0,1,1.2,1.2v20.33a1.217,1.217,0,0,1-.622,1.052,1.129,1.129,0,0,1-1.22-.072l-6.841-4.544-6.793,4.568a1.286,1.286,0,0,1-.67.191Zm7.462-7.414a1.352,1.352,0,0,1,.67.191l5.6,3.755V16.392H150.21V33.3l5.6-3.755a1.046,1.046,0,0,1,.67-.239Z" transform="translate(282.994 0)" fill="#58c8d9"/>
    </g>
  </g>
</svg>
