<svg id="term" xmlns="http://www.w3.org/2000/svg" width="25.589" height="28.732" viewBox="0 0 25.589 28.732">
  <path id="Path_141" data-name="Path 141" d="M31.242,0h-.9A1.353,1.353,0,0,0,29,1.356v14.1c0,.006,0,.012,0,.019s0,.012,0,.018a.446.446,0,0,0,.082.258l1.3,3.274a.449.449,0,0,0,.835,0l1.3-3.274a.446.446,0,0,0,.082-.258c0-.006,0-.012,0-.018s0-.012,0-.019V1.356A1.353,1.353,0,0,0,31.242,0Zm.449,15.039H29.9V2.694h1.8ZM16.428,24.018a4.714,4.714,0,1,0-4.714,4.714A4.714,4.714,0,0,0,16.428,24.018Zm-4.714,3.816a3.816,3.816,0,1,1,3.816-3.816,3.816,3.816,0,0,1-3.816,3.816Z" transform="translate(-7 0)" fill="#377d22"/>
  <path id="Path_142" data-name="Path 142" d="M28.694,97.245H26.9v-1.8a.449.449,0,0,0-.9,0v2.245a.449.449,0,0,0,.449.449h2.245a.449.449,0,0,0,0-.9Z" transform="translate(-21.735 -73.676)" fill="#377d22"/>
  <path id="Path_143" data-name="Path 143" d="M46.543,20.179l-.011,0a1.364,1.364,0,0,1-.228.021,1.34,1.34,0,0,1-1.252-.851l-.91-2.3a.5.5,0,0,1-.083.007H29.694a.449.449,0,1,1,0-.9h14.1l0-.011a1.336,1.336,0,0,1-.175-.662v-.224H29.694a.449.449,0,1,1,0-.9H43.61v-.9H29.694a.449.449,0,1,1,0-.9H43.61v-.9H29.694a.449.449,0,1,1,0-.9H43.61v-.9H29.694a.449.449,0,1,1,0-.9H43.61v-.9H29.694a.449.449,0,1,1,0-.9H43.61v-.9H29.694a.449.449,0,1,1,0-.9H43.61V1.356A2.26,2.26,0,0,1,43.642,1L43.625.9h.032A2.237,2.237,0,0,1,43.72.663c0-.014.01-.027.015-.041.022-.064.047-.128.075-.189L43.824.4q.046-.1.1-.193L43.933.2a2.26,2.26,0,0,1,.133-.2h-12.6c-.046,0-.091,0-.136.007a.42.42,0,0,0-.326.076,1.34,1.34,0,0,0-.491.312L27.394,3.516A1.338,1.338,0,0,0,27,4.468V18.412c.075,0,.149-.006.224-.006a5.608,5.608,0,0,1,3.864,9.675l-.009.009a5.649,5.649,0,0,1-.816.642H45.406a1.348,1.348,0,0,0,1.347-1.347V20.123h0a1.341,1.341,0,0,1-.21.056ZM34.632,3.591h4.489a.449.449,0,1,1,0,.9H34.632a.449.449,0,1,1,0-.9ZM44.957,21.548a.449.449,0,0,1-.449.449H36.652a.449.449,0,1,1,0-.9h7.856a.449.449,0,0,1,.449.449ZM30.816,1.364V3.1a.494.494,0,0,1-.493.493H28.589ZM29.694,18.855a.449.449,0,1,1,0-.9H44.059a.449.449,0,1,1,0,.9ZM44.733,25.14H36.652a.449.449,0,1,1,0-.9h8.081a.449.449,0,0,1,0,.9Z" transform="translate(-22.511 0)" fill="#377d22"/>
</svg>
