<svg id="Component_9_1" data-name="Component 9 – 1" xmlns="http://www.w3.org/2000/svg" width="173.576" height="186.369" viewBox="0 0 173.576 186.369">
  <path id="Subtraction_1" data-name="Subtraction 1" d="M71.875,143.749a72.407,72.407,0,0,1-14.486-1.46,71.482,71.482,0,0,1-25.7-10.815A72.087,72.087,0,0,1,5.649,99.851,71.521,71.521,0,0,1,1.461,86.36a72.551,72.551,0,0,1,0-28.97,71.482,71.482,0,0,1,10.815-25.7A72.077,72.077,0,0,1,43.9,5.648,71.528,71.528,0,0,1,57.389,1.46a72.572,72.572,0,0,1,28.97,0,71.477,71.477,0,0,1,25.7,10.815A72.1,72.1,0,0,1,138.1,43.9a71.577,71.577,0,0,1,4.187,13.492,72.589,72.589,0,0,1,0,28.97,71.445,71.445,0,0,1-10.815,25.7A72.076,72.076,0,0,1,99.852,138.1a71.5,71.5,0,0,1-13.493,4.188A72.4,72.4,0,0,1,71.875,143.749ZM71.507,15.48A56.5,56.5,0,0,0,39.77,25.174,56.935,56.935,0,0,0,19.2,50.148a56.684,56.684,0,0,0,5.234,53.83,56.922,56.922,0,0,0,24.974,20.565,56.691,56.691,0,0,0,53.83-5.233,56.92,56.92,0,0,0,20.565-24.973,56.69,56.69,0,0,0-5.233-53.83A56.924,56.924,0,0,0,93.6,19.941,56.4,56.4,0,0,0,71.507,15.48Z" transform="translate(8.64 21.563)" fill="#e0e0e0"/>
  <path id="Subtraction_5" data-name="Subtraction 5" d="M81.054,156.332a81.542,81.542,0,0,1-16.336-1.648,80.535,80.535,0,0,1-28.981-12.195,81.3,81.3,0,0,1-29.367-35.66A80.668,80.668,0,0,1,1.648,91.615a81.787,81.787,0,0,1,0-32.67,80.551,80.551,0,0,1,12.2-28.981A81.311,81.311,0,0,1,49.5.6c.471-.2.96-.4,1.452-.6L56.99,16.2c-.408.162-.834.337-1.267.52a64.028,64.028,0,0,0,46.618,119.216l6.02,15.684a80.928,80.928,0,0,1-27.308,4.716Z" transform="translate(0 17.473)" fill="#f68d88"/>
  <path id="Subtraction_7" data-name="Subtraction 7" d="M78.893,56.33a92.476,92.476,0,0,1-18.486-1.863,91.313,91.313,0,0,1-17.219-5.345,91.8,91.8,0,0,1-15.581-8.458,92.218,92.218,0,0,1-13.576-11.2A92.453,92.453,0,0,1,2.83,15.887C1.851,14.437.9,12.936,0,11.425L14.944,0c1.048,1.9,2.195,3.775,3.41,5.573A72.773,72.773,0,0,0,27.2,16.293,72.88,72.88,0,0,0,37.92,25.14a72.392,72.392,0,0,0,12.307,6.678,71.953,71.953,0,0,0,28.2,5.694,72.127,72.127,0,0,0,24.459-4.233l7.679,17.436A91.586,91.586,0,0,1,97.38,54.466,92.484,92.484,0,0,1,78.893,56.33Z" transform="translate(7.682 120.365)" fill="#497295"/>
  <path id="Subtraction_3" data-name="Subtraction 3" d="M55.706,186.369a94.709,94.709,0,0,1-9.763-.506v-30.33a63.93,63.93,0,0,0,9.763.747A62.788,62.788,0,0,0,90.982,145.5a63.236,63.236,0,0,0,22.859-27.76,63.026,63.026,0,0,0-5.816-59.834A63.3,63.3,0,0,0,80.265,35.05a63.3,63.3,0,0,0-49.118,0,63.325,63.325,0,0,0-9.536,5.039L0,18.478c1.182-.882,2.393-1.744,3.6-2.562A93.235,93.235,0,0,1,147,111.964a92.565,92.565,0,0,1-5.429,17.492,93.07,93.07,0,0,1-85.862,56.913Z" transform="translate(24.685)" fill="#bfdda6"/>
</svg>
