<svg xmlns="http://www.w3.org/2000/svg" width="15.457" height="19.205" viewBox="0 0 15.457 19.205">
  <g id="Group_518" data-name="Group 518" transform="translate(-34.895 -346.265)">
    <g id="noun_documents_3436983" transform="translate(17.095 336.465)">
      <path id="Path_113" data-name="Path 113" d="M19.569,33.655V20.2h-.815a.944.944,0,0,0-.954.954V36.03a.944.944,0,0,0,.954.954h11.1a.944.944,0,0,0,.954-.954v-.768H21.175A1.609,1.609,0,0,1,19.569,33.655Z" transform="translate(0 -7.979)"/>
      <path id="Path_114" data-name="Path 114" d="M67.468,13.874h3.306L66.7,9.8v3.306A.775.775,0,0,0,67.468,13.874Z" transform="translate(-37.517)"/>
      <path id="Path_115" data-name="Path 115" d="M36.511,13.182V9.9H29.154a.944.944,0,0,0-.954.954v14.9a.944.944,0,0,0,.954.954h11.1a.944.944,0,0,0,.954-.954V14.6H37.931A1.411,1.411,0,0,1,36.511,13.182Zm-4.842,1.35h2.956a.326.326,0,1,1,0,.652H31.669a.318.318,0,0,1-.326-.326A.305.305,0,0,1,31.669,14.533Zm6.122,9.2H31.669a.326.326,0,0,1,0-.652h6.122a.318.318,0,0,1,.326.326A.35.35,0,0,1,37.791,23.728Zm0-2.84H31.669a.326.326,0,0,1,0-.652h6.122a.318.318,0,0,1,.326.326A.333.333,0,0,1,37.791,20.888Zm.326-3.189a.318.318,0,0,1-.326.326H31.669a.326.326,0,0,1,0-.652h6.122A.333.333,0,0,1,38.117,17.7Z" transform="translate(-7.979 -0.077)"/>
    </g>
  </g>
</svg>
