<svg xmlns="http://www.w3.org/2000/svg" width="20.25" height="24" viewBox="0 0 20.25 24">
  <g id="Group_747" data-name="Group 747" transform="translate(-35.264 -344.051)">
    <g id="noun_agreement_2717432" transform="translate(25.264 344.051)">
      <path id="Path_242" data-name="Path 242" d="M10.75,21.375V1.125A.375.375,0,0,1,11.125.75h13.5A.375.375,0,0,1,25,1.125h.75A1.126,1.126,0,0,0,24.625,0h-13.5A1.126,1.126,0,0,0,10,1.125v20.25A1.126,1.126,0,0,0,11.125,22.5H11.5v-.75h-.375A.375.375,0,0,1,10.75,21.375Z"/>
      <path id="Path_243" data-name="Path 243" d="M37.375,112a.375.375,0,0,0,0,.75H46.75a.373.373,0,0,0,.275-.122,4.313,4.313,0,0,1-1.08-.628Z" transform="translate(-21.938 -91)"/>
      <path id="Path_244" data-name="Path 244" d="M37,31a.375.375,0,0,1-.375.375h-13.5A.375.375,0,0,1,22.75,31V11.125a.375.375,0,0,1,.375-.375h13.5a.375.375,0,0,1,.375.375v10.35a4.279,4.279,0,0,1,.75.167V11.125A1.126,1.126,0,0,0,36.625,10h-13.5A1.126,1.126,0,0,0,22,11.125V31a1.126,1.126,0,0,0,1.125,1.125h13.5A1.126,1.126,0,0,0,37.75,31V29.858a4.278,4.278,0,0,1-.75.167Z" transform="translate(-9.75 -8.125)"/>
      <path id="Path_245" data-name="Path 245" d="M48.015,28.3H46.746a.689.689,0,0,0-.75.72v.717c0,.2,0,.814.616.814H52.13c.616,0,.616-.612.616-.814v-.717A.689.689,0,0,0,52,28.3H50.833a.171.171,0,0,1-.153-.094,1.863,1.863,0,0,1-.127-1.365,5.1,5.1,0,0,1,.324-.8l0-.01a2.147,2.147,0,1,0-3,.048l0,.006a5.228,5.228,0,0,1,.309.782,1.84,1.84,0,0,1-.133,1.343Zm.9-1.645a5.9,5.9,0,0,0-.35-.889l-.033-.072a.375.375,0,0,0-.09-.122,1.456,1.456,0,0,1-.482-1.084,1.4,1.4,0,1,1,2.795,0,1.444,1.444,0,0,1-.445,1.05.379.379,0,0,0-.079.109l-.032.068a5.8,5.8,0,0,0-.366.914h0a2.611,2.611,0,0,0,.177,1.913.916.916,0,0,0,.822.506H52v.686c0,.017,0,.04,0,.064H46.747c0-.023,0-.046,0-.064v-.686h1.269a.746.746,0,0,0,.67-.413l.047-.093a2.587,2.587,0,0,0,.184-1.889Z" transform="translate(-29.246 -18.173)"/>
      <path id="Path_246" data-name="Path 246" d="M83.563,75a3.563,3.563,0,1,0,3.563,3.563A3.563,3.563,0,0,0,83.563,75Zm0,6.375a2.813,2.813,0,1,1,2.813-2.812A2.813,2.813,0,0,1,83.563,81.375Z" transform="translate(-56.875 -60.938)"/>
      <path id="Path_247" data-name="Path 247" d="M92.787,88.566l-1.624,1.12-.5-.594a.375.375,0,1,0-.573.484l.722.853a.375.375,0,0,0,.5.067l1.9-1.312a.375.375,0,0,0-.426-.617Z" transform="translate(-65 -71.906)"/>
      <path id="Path_248" data-name="Path 248" d="M37.375,104a.375.375,0,0,0,0,.75h7.832a4.319,4.319,0,0,1-.465-.75Z" transform="translate(-21.938 -84.5)"/>
      <path id="Path_249" data-name="Path 249" d="M37.375,96a.375.375,0,0,0,0,.75h7.087A4.286,4.286,0,0,1,44.33,96Z" transform="translate(-21.938 -78)"/>
      <path id="Path_250" data-name="Path 250" d="M44.462,88H37.375a.375.375,0,0,0,0,.75H44.33A4.286,4.286,0,0,1,44.462,88Z" transform="translate(-21.938 -71.5)"/>
      <path id="Path_251" data-name="Path 251" d="M37,80.375a.375.375,0,0,0,.375.375h7.367a4.319,4.319,0,0,1,.465-.75H37.375a.375.375,0,0,0-.375.375Z" transform="translate(-21.938 -65)"/>
      <path id="Path_252" data-name="Path 252" d="M46.75,72H37.375a.375.375,0,0,0,0,.75h8.57a4.313,4.313,0,0,1,1.08-.628A.373.373,0,0,0,46.75,72Z" transform="translate(-21.938 -58.5)"/>
    </g>
  </g>
</svg>
