<svg xmlns="http://www.w3.org/2000/svg" width="12.644" height="16.5" viewBox="0 0 12.644 16.5">
  <g id="Group_459" data-name="Group 459" transform="translate(-63.178 -541.25)">
    <g id="noun_secure_2498875" transform="translate(59.039 534.25)">
      <g id="Group_511" data-name="Group 511" transform="translate(4.139 7)">
        <g id="Group_508" data-name="Group 508" transform="translate(0 0)">
          <path id="Path_99" data-name="Path 99" d="M19.493,23.5a.225.225,0,0,1-.1-.022c-.254-.121-6.226-3-6.226-6.686V8.97a.256.256,0,0,1,.086-.193.227.227,0,0,1,.2-.052,6.609,6.609,0,0,0,5.894-1.67.225.225,0,0,1,.294,0,6.609,6.609,0,0,0,5.894,1.67.227.227,0,0,1,.2.052.256.256,0,0,1,.086.193v7.822c0,3.687-5.972,6.565-6.226,6.686A.225.225,0,0,1,19.493,23.5ZM13.642,9.269v7.524c0,3.128,5.083,5.8,5.851,6.182.768-.385,5.851-3.056,5.851-6.182V9.269a7,7,0,0,1-5.851-1.7A7,7,0,0,1,13.642,9.269Z" transform="translate(-13.171 -7)"/>
        </g>
        <g id="Group_510" data-name="Group 510" transform="translate(3.077 5.292)">
          <path id="Path_101" data-name="Path 101" d="M34.065,38.28h0a.358.358,0,0,1-.253-.1l-1.632-1.76c-.14-.14-.223-.447-.084-.587s.464-.019.6.121l1.365,1.468,3.35-3.35a.358.358,0,0,1,.506.506l-3.6,3.6A.358.358,0,0,1,34.065,38.28Z" transform="translate(-32.025 -33.962)"/>
        </g>
      </g>
    </g>
  </g>
</svg>
