<svg xmlns="http://www.w3.org/2000/svg" width="15.32" height="15.32" viewBox="0 0 15.32 15.32">
  <g id="Group_454" data-name="Group 454" transform="translate(-35.34 -349.34)">
    <path id="Icon_awesome-book-reader" data-name="Icon awesome-book-reader" d="M10.533,2.873A2.873,2.873,0,1,0,7.66,5.745,2.872,2.872,0,0,0,10.533,2.873ZM6.989,7.214C5.214,6.127,2.339,5.829.892,5.747A.828.828,0,0,0,0,6.557v6.667a.823.823,0,0,0,.793.809,16.1,16.1,0,0,1,5.776,1.24.417.417,0,0,0,.613-.355V7.557a.4.4,0,0,0-.192-.343Zm7.439-1.468c-1.447.082-4.323.381-6.1,1.468a.406.406,0,0,0-.192.348v7.355a.418.418,0,0,0,.615.356,16.1,16.1,0,0,1,5.774-1.239.823.823,0,0,0,.793-.81V6.557A.828.828,0,0,0,14.428,5.747Z" transform="translate(35.34 349.34)"/>
  </g>
</svg>
