<svg xmlns="http://www.w3.org/2000/svg" width="12.705" height="16.94" viewBox="0 0 12.705 16.94">
  <g id="Group_516" data-name="Group 516" transform="translate(-36.647 -348.53)">
    <path id="Icon_awesome-id-badge" data-name="Icon awesome-id-badge" d="M11.117,0H1.588A1.589,1.589,0,0,0,0,1.588V15.352A1.589,1.589,0,0,0,1.588,16.94h9.529a1.589,1.589,0,0,0,1.588-1.588V1.588A1.589,1.589,0,0,0,11.117,0ZM4.764,1.059H7.941a.529.529,0,1,1,0,1.059H4.764a.529.529,0,1,1,0-1.059ZM6.353,5.294A2.118,2.118,0,1,1,4.235,7.411,2.119,2.119,0,0,1,6.353,5.294Zm3.706,7.835a.694.694,0,0,1-.741.635H3.388a.694.694,0,0,1-.741-.635v-.635A2.084,2.084,0,0,1,4.87,10.588h.165a3.408,3.408,0,0,0,2.634,0h.165a2.084,2.084,0,0,1,2.223,1.906Z" transform="translate(36.647 348.53)"/>
  </g>
</svg>
