<svg xmlns="http://www.w3.org/2000/svg" width="12.705" height="16.718" viewBox="0 0 12.705 16.718">
  <g id="Group_756" data-name="Group 756" transform="translate(-36.647 -348.523)">
    <g id="noun_sheet_3198691" transform="translate(25.647 343.523)">
      <path id="Path_111" data-name="Path 111" d="M11,21.383a.335.335,0,0,0,.334.334H23.371a.333.333,0,0,0,.334-.334V5.334A.333.333,0,0,0,23.371,5h-8.8V8.233a.335.335,0,0,1-.334.334H11Zm2.2-10.99h8.315a.334.334,0,1,1,0,.669H13.2a.334.334,0,1,1,0-.669Zm0,2.842h8.315a.334.334,0,1,1,0,.669H13.2a.334.334,0,1,1,0-.669Zm0,2.842h8.315a.334.334,0,1,1,0,.669H13.2a.334.334,0,1,1,0-.669Zm0,2.842h8.315a.334.334,0,1,1,0,.669H13.2a.334.334,0,1,1,0-.669Z" transform="translate(0)"/>
      <path id="Path_112" data-name="Path 112" d="M11.593,8.283h2.7v-2.7Z" transform="translate(-0.395 -0.385)"/>
    </g>
  </g>
</svg>
