<svg xmlns="http://www.w3.org/2000/svg" width="16.904" height="14.188" viewBox="0 0 16.904 14.188">
  <g id="Group_507" data-name="Group 507" transform="translate(-34.64 -387.829)">
    <g id="noun_person_4380617" transform="translate(34.64 389.46)">
      <ellipse id="Ellipse_32" data-name="Ellipse 32" cx="2.219" cy="2.219" rx="2.219" ry="2.219" transform="matrix(0.923, -0.384, 0.384, 0.923, 1.217, 1.707)"/>
      <path id="Path_98" data-name="Path 98" d="M15.748,50h0a4.118,4.118,0,0,0-4.118,4.122h0A1.081,1.081,0,0,0,12.711,55.2h6.075a1.081,1.081,0,0,0,1.081-1.081h0A4.118,4.118,0,0,0,15.748,50Z" transform="translate(-11.63 -44.122)"/>
    </g>
    <g id="noun_person_4380617-2" data-name="noun_person_4380617" transform="translate(41.355 388.483)">
      <ellipse id="Ellipse_32-2" data-name="Ellipse 32" cx="2.611" cy="2.611" rx="2.611" ry="2.611" transform="matrix(0.923, -0.384, 0.384, 0.923, 1.431, 2.007)" stroke="#e2eaf3" stroke-width="1"/>
      <path id="Path_98-2" data-name="Path 98" d="M16.475,50h0a4.845,4.845,0,0,0-4.845,4.848h0A1.271,1.271,0,0,0,12.9,56.12h7.146a1.271,1.271,0,0,0,1.271-1.271h0A4.845,4.845,0,0,0,16.475,50Z" transform="translate(-11.63 -43.086)" stroke="#e2eaf3" stroke-width="1"/>
    </g>
  </g>
</svg>
