<svg xmlns="http://www.w3.org/2000/svg" width="15.75" height="15.754" viewBox="0 0 15.75 15.754">
  <path id="Icon_awesome-wpforms" data-name="Icon awesome-wpforms" d="M15.75,3.769V16.485A1.5,1.5,0,0,1,14.231,18H1.519A1.507,1.507,0,0,1,0,16.481V3.769A1.5,1.5,0,0,1,1.519,2.25H14.235A1.5,1.5,0,0,1,15.75,3.769ZM14.439,16.481V3.769a.209.209,0,0,0-.2-.2h-.327L10.03,6.187,7.875,4.433,5.723,6.187,1.846,3.561H1.519a.209.209,0,0,0-.2.2V16.481a.209.209,0,0,0,.2.2H14.235A.2.2,0,0,0,14.439,16.481ZM5.28,7.664v1.3H2.7v-1.3Zm0,2.616v1.311H2.7V10.28ZM5.671,5.1l1.9-1.536H3.4L5.671,5.1Zm7.383,2.563v1.3H6.163v-1.3Zm0,2.616v1.311H6.163V10.28ZM10.079,5.1l2.268-1.536H8.184L10.079,5.1Zm2.974,7.8v1.311H9.559V12.9h3.495Z" transform="translate(0 -2.25)"/>
</svg>
