<svg xmlns="http://www.w3.org/2000/svg" width="16.189" height="12.142" viewBox="0 0 16.189 12.142">
  <path id="Icon_metro-profile" data-name="Icon metro-profile" d="M19.532,9.447H18.4v-1.7l-2.337-.036.012,1.735H9.052L9.1,7.712l-2.288.036V9.483L5.655,9.447A1.157,1.157,0,0,0,4.5,10.6V18.7a1.157,1.157,0,0,0,1.156,1.156H19.532A1.157,1.157,0,0,0,20.688,18.7V10.6A1.157,1.157,0,0,0,19.532,9.447ZM16.641,8.29H17.8V10.6H16.641ZM9.124,12.229a1.505,1.505,0,0,1,1.265,1.662,1.505,1.505,0,0,1-1.265,1.662,1.505,1.505,0,0,1-1.265-1.662A1.505,1.505,0,0,1,9.124,12.229ZM7.39,8.29H8.546V10.6H7.39Zm-.771,9.221s.137-1.1.449-1.307a4.434,4.434,0,0,1,1.208-.346s.582.622.829.622.829-.622.829-.622a4.421,4.421,0,0,1,1.209.346c.366.244.457,1.307.457,1.307H6.619Zm11.756-.548h-5.2v-.578h5.2Zm0-1.156h-5.2v-.578h5.2Zm0-1.156h-5.2v-.578h5.2Zm0-1.156h-5.2v-.578h5.2Z" transform="translate(-4.499 -7.712)"/>
</svg>
