<svg xmlns="http://www.w3.org/2000/svg" width="24.777" height="16.848" viewBox="0 0 24.777 16.848">
  <g id="noun_transit_2952749" transform="translate(-2.5 -17.7)">
    <path id="Path_144" data-name="Path 144" d="M26.416,25.994l-2.269-.469-1.069-3.208a2.772,2.772,0,0,0-2.634-1.9h-1.8V18.769A1.058,1.058,0,0,0,17.575,17.7H3.569A1.058,1.058,0,0,0,2.5,18.769V30.428A1.058,1.058,0,0,0,3.569,31.5H4.717a3.052,3.052,0,1,0,6.1,0h8.137a3.052,3.052,0,1,0,6.1,0h1.148a1.058,1.058,0,0,0,1.069-1.069V27.037A1.084,1.084,0,0,0,26.416,25.994ZM7.768,32.958A1.434,1.434,0,1,1,9.2,31.523,1.43,1.43,0,0,1,7.768,32.958Zm6.572-8.111-2.53,2.53a.693.693,0,0,1-.991,0,.693.693,0,0,1,0-.965l1.356-1.356H6.856a.678.678,0,1,1,0-1.356h5.321L10.82,22.342a.682.682,0,0,1,.965-.965l2.53,2.53a.713.713,0,0,1,.209.5A.553.553,0,0,1,14.341,24.846Zm4.3.417V22.029h1.8a1.151,1.151,0,0,1,1.121.809l.809,2.426h-3.73Zm3.364,7.694a1.434,1.434,0,1,1,1.434-1.434A1.447,1.447,0,0,1,22.009,32.958Z"/>
  </g>
</svg>
