<svg xmlns="http://www.w3.org/2000/svg" width="19.88" height="18.95" viewBox="0 0 19.88 18.95">
  <g id="noun_module_2409451" transform="translate(-2.5 -4.65)">
    <g id="Group_532" data-name="Group 532" transform="translate(2.5 4.65)">
      <path id="Path_149" data-name="Path 149" d="M11.659,32.5a.46.46,0,0,0,.167.021.6.6,0,0,0,.564-.418,7.367,7.367,0,0,1,1.944-3.178.577.577,0,1,0-.794-.836,8.5,8.5,0,0,0-2.258,3.7A.557.557,0,0,0,11.659,32.5Z" transform="translate(-9.422 -23.058)"/>
      <path id="Path_150" data-name="Path 150" d="M75.33,32.02a.6.6,0,0,0,.564.418.46.46,0,0,0,.167-.021.59.59,0,0,0,.4-.732,8.7,8.7,0,0,0-2.258-3.7.577.577,0,1,0-.794.836A7.518,7.518,0,0,1,75.33,32.02Z" transform="translate(-58.439 -22.979)"/>
      <path id="Path_151" data-name="Path 151" d="M41.978,88.446a7.325,7.325,0,0,1-3.742-.021.583.583,0,1,0-.293,1.129,8.834,8.834,0,0,0,2.216.293,8.017,8.017,0,0,0,2.111-.272.58.58,0,0,0,.418-.711A.571.571,0,0,0,41.978,88.446Z" transform="translate(-30.187 -70.896)"/>
      <path id="Path_152" data-name="Path 152" d="M2.6,63.379a.08.08,0,0,0-.1.063v3.993a.315.315,0,0,0,.188.293l2.927,1.338a.08.08,0,0,0,.1-.063v-4.16c0-.021-.021-.063-.042-.063Z" transform="translate(-2.5 -51.098)"/>
      <path id="Path_153" data-name="Path 153" d="M11.28,54.677l-2.843-1.3a.267.267,0,0,0-.251,0l-2.864,1.3c-.063.021-.063.1,0,.146L8.27,56.162h.063l2.948-1.338C11.343,54.8,11.343,54.719,11.28,54.677Z" transform="translate(-4.695 -43.169)"/>
      <path id="Path_154" data-name="Path 154" d="M24.794,63.37l-3.052,1.4c-.021.021-.042.042-.042.063v4.139c0,.063.063.1.1.063L24.731,67.7a.328.328,0,0,0,.188-.293V63.433A.093.093,0,0,0,24.794,63.37Z" transform="translate(-17.686 -51.089)"/>
      <path id="Path_155" data-name="Path 155" d="M63.1,63.379a.08.08,0,0,0-.1.063v3.993a.315.315,0,0,0,.188.293l2.927,1.338a.08.08,0,0,0,.1-.063v-4.16c0-.021-.021-.063-.042-.063Z" transform="translate(-50.353 -51.098)"/>
      <path id="Path_156" data-name="Path 156" d="M71.78,54.677l-2.843-1.3a.267.267,0,0,0-.251,0l-2.864,1.3c-.063.021-.063.1,0,.146l2.948,1.338h.063l2.948-1.338C71.843,54.8,71.843,54.719,71.78,54.677Z" transform="translate(-52.548 -43.169)"/>
      <path id="Path_157" data-name="Path 157" d="M85.294,63.37l-3.052,1.4c-.021.021-.042.042-.042.063v4.139c0,.063.063.1.1.063L85.231,67.7a.328.328,0,0,0,.188-.293V63.433A.093.093,0,0,0,85.294,63.37Z" transform="translate(-65.539 -51.089)"/>
      <path id="Path_158" data-name="Path 158" d="M32.967,19.106l2.927,1.338a.08.08,0,0,0,.1-.063V16.242c0-.021-.021-.063-.042-.063l-3.052-1.4a.08.08,0,0,0-.1.063v3.993A.326.326,0,0,0,32.967,19.106Z" transform="translate(-26.466 -12.657)"/>
      <path id="Path_159" data-name="Path 159" d="M38.549,7.483h.063l2.948-1.338c.063-.021.063-.1,0-.146L38.716,4.681a.267.267,0,0,0-.251,0l-2.843,1.3c-.063.021-.063.1,0,.146Z" transform="translate(-28.661 -4.65)"/>
      <path id="Path_160" data-name="Path 160" d="M51.9,16.2v4.139c0,.063.063.1.1.063l2.927-1.338a.328.328,0,0,0,.188-.293V14.8c0-.063-.063-.1-.1-.063l-3.052,1.4C51.9,16.137,51.9,16.158,51.9,16.2Z" transform="translate(-41.573 -12.615)"/>
    </g>
  </g>
</svg>
