<svg xmlns="http://www.w3.org/2000/svg" width="23.084" height="23.409" viewBox="0 0 23.084 23.409">
  <g id="noun_Customs_Clearance_3263508" data-name="noun_Customs Clearance_3263508" transform="translate(-6.32 -5.282)">
    <path id="Path_130" data-name="Path 130" d="M22.884,74.222a.392.392,0,0,0-.392.392v1.813a.392.392,0,0,0,.392.392H24.7a.392.392,0,0,0,.392-.392V74.614a.392.392,0,0,0-.392-.392Zm1.421,1.813h-1.03v-1.03h1.03Z" transform="translate(-13.639 -58.141)"/>
    <path id="Path_131" data-name="Path 131" d="M46.186,76.818H48a.392.392,0,0,0,.392-.392V74.614A.392.392,0,0,0,48,74.222H46.186a.392.392,0,0,0-.392.392v1.813A.392.392,0,0,0,46.186,76.818Zm.392-1.813h1.03v1.03h-1.03Z" transform="translate(-33.29 -58.141)"/>
    <path id="Path_132" data-name="Path 132" d="M26.925,60.16a.392.392,0,0,0-.392-.392h-3.65a.392.392,0,0,0,0,.783h3.65A.392.392,0,0,0,26.925,60.16Z" transform="translate(-13.639 -45.951)"/>
    <path id="Path_133" data-name="Path 133" d="M29.4,16.013a.55.55,0,0,0-.01-.1v0a.547.547,0,0,0-.027-.09c0-.009-.008-.017-.011-.026a.553.553,0,0,0-.034-.063c-.005-.008-.01-.016-.015-.024a.554.554,0,0,0-.062-.076l-3.1-3.1a.536.536,0,0,0-.076-.062l-.023-.015a.535.535,0,0,0-.064-.034l-.025-.011a.547.547,0,0,0-.19-.038H17.074a.548.548,0,0,0-.548.548v7.023H7.417V6.379h3.728V10.8a.548.548,0,0,0,.866.446l.924-.658.923.658a.546.546,0,0,0,.636,0l.924-.658.923.658a.548.548,0,0,0,.866-.446V6.379h3.781v5.61h1.1V5.83a.549.549,0,0,0-.548-.548H6.868a.549.549,0,0,0-.548.548V20.5a.549.549,0,0,0,.548.548h9.657v7.1a.548.548,0,0,0,.548.548H28.855a.548.548,0,0,0,.548-.548V16.024S29.4,16.017,29.4,16.013ZM12.241,6.379H16.11V9.732l-.374-.268a.551.551,0,0,0-.636,0l-.924.658-.923-.658a.548.548,0,0,0-.636,0l-.376.266V6.379Zm14.065,7.872,1.225,1.225H26.307Zm2,13.343H17.622V13.475H25.21v2.549a.548.548,0,0,0,.548.548h2.549Z"/>
    <path id="Path_134" data-name="Path 134" d="M111.656,116.462l-1.982,2.565-.842-.791a.548.548,0,0,0-.75.8l1.282,1.2a.549.549,0,0,0,.375.148l.044,0a.548.548,0,0,0,.39-.211l2.351-3.042a.548.548,0,1,0-.868-.67Z" transform="translate(-85.674 -93.584)"/>
    <path id="Path_135" data-name="Path 135" d="M87.109,84.855h1.385a.392.392,0,0,0,.392-.392V83.079a.392.392,0,0,0-.392-.392H87.109a.392.392,0,0,0-.392.392v1.385A.392.392,0,0,0,87.109,84.855ZM87.5,83.47h.6v.6h-.6Z" transform="translate(-67.803 -65.28)"/>
    <path id="Path_136" data-name="Path 136" d="M106.129,82.687a.392.392,0,1,0,0,.783H109.6a.392.392,0,0,0,0-.783Z" transform="translate(-83.844 -65.28)"/>
    <path id="Path_137" data-name="Path 137" d="M107.865,92.313a.392.392,0,1,0,0-.783h-1.737a.392.392,0,1,0,0,.783Z" transform="translate(-83.844 -72.737)"/>
    <path id="Path_138" data-name="Path 138" d="M88.886,103.133a.392.392,0,0,0-.392-.392H87.109a.392.392,0,0,0-.392.392v1.385a.392.392,0,0,0,.392.392h1.385a.392.392,0,0,0,.392-.392Zm-.783.993h-.6v-.6h.6Z" transform="translate(-67.803 -82.192)"/>
    <path id="Path_139" data-name="Path 139" d="M109.6,107.946a.392.392,0,0,0,0-.783h-3.473a.392.392,0,0,0,0,.783Z" transform="translate(-83.844 -85.922)"/>
  </g>
</svg>
