<svg xmlns="http://www.w3.org/2000/svg" width="17.963" height="17.962" viewBox="0 0 17.963 17.962">
  <g id="noun_Sales_margins_883161" data-name="noun_Sales margins_883161" transform="translate(-7.2 -7)">
    <g id="Group_529" data-name="Group 529" transform="translate(7.2 7)">
      <g id="Group_528" data-name="Group 528">
        <path id="Path_128" data-name="Path 128" d="M29.036,29.514v-.469h.4a1.118,1.118,0,1,0,0-2.236h-.4v-.794H29.9a.361.361,0,1,0,0-.721h-.866v-.433a.361.361,0,1,0-.721,0v.433h-.4a1.118,1.118,0,0,0,0,2.236h.4v.794h-.974a.361.361,0,1,0,0,.721h.974v.469a.361.361,0,0,0,.721,0Zm-1.118-2.705a.4.4,0,1,1,0-.794h.4v.794Zm1.118.721h.4a.4.4,0,1,1,0,.794h-.4Z" transform="translate(-19.73 -18.188)"/>
        <path id="Path_129" data-name="Path 129" d="M16.145,7A8.939,8.939,0,0,0,9.8,9.633h0v.036A8.978,8.978,0,1,0,16.145,7Zm-3.427,4.364a5.712,5.712,0,0,1,3.463-1.154,5.781,5.781,0,0,1,5.7,4.941.338.338,0,0,1-.289.4h-.036a.384.384,0,0,1-.361-.325,5.033,5.033,0,0,0-8.007-3.318.388.388,0,0,1-.5-.072C12.5,11.725,12.538,11.509,12.719,11.364Zm7.791,4.617a4.346,4.346,0,1,1-4.328-4.364A4.356,4.356,0,0,1,20.51,15.981Zm-12.624,0a8.284,8.284,0,0,1,2.164-5.555L12.322,12.7A5.052,5.052,0,0,0,11.1,15.981,4.993,4.993,0,0,0,12.358,19.3l-2.272,2.272A8.167,8.167,0,0,1,7.885,15.981Zm8.26,8.3a8.307,8.307,0,0,1-5.591-2.164l2.272-2.272a5.149,5.149,0,0,0,3.318,1.226,5.079,5.079,0,0,0,5.05-4.725h3.21A8.291,8.291,0,0,1,16.145,24.277Z" transform="translate(-7.2 -7)"/>
      </g>
    </g>
  </g>
</svg>
