<svg xmlns="http://www.w3.org/2000/svg" width="63.126" height="56.325" viewBox="0 0 63.126 56.325">
  <g id="noun_letter_of_credit_2201632" data-name="noun_letter of credit_2201632" transform="translate(-0.529 -0.929)">
    <g id="Group_14" data-name="Group 14" transform="translate(0.529 0.928)">
      <path id="Path_229" data-name="Path 229" d="M10.2,292.1v4.509H6.821a1.127,1.127,0,1,0,0,2.255H10.2v2.255H5.694a1.127,1.127,0,1,0,0,2.254H10.2v2.255H4.567a1.127,1.127,0,1,0,0,2.255H10.2v4.509H41.766V292.1Zm4.619,2.255H37.147L25.985,302.4Zm-2.365,1.074,8.287,5.976-8.287,7.353Zm27.054,0v13.329l-8.287-7.353Zm-16.891,7.327,3.364,2.422,3.369-2.422,8.318,7.38H14.3Z" transform="translate(21.36 -269.597)" fill="#56554d"/>
      <path id="Path_230" data-name="Path 230" d="M27.5,289.463a2.252,2.252,0,0,0-1.259.44L4.9,305.646a2.255,2.255,0,0,0,1.339,4.069H11.8v20.291H9.547v4.509H5.038v4.509H.529v6.763H54.638v-6.763H50.129v-4.509H29.838v-4.509H18.565V309.715h30.37a2.255,2.255,0,0,0,1.339-4.069L28.922,289.9a2.253,2.253,0,0,0-1.418-.441Zm-1.048,4.47h2.255v1.36a3.384,3.384,0,0,1,1.554,1.127l-1.788,1.374a1.127,1.127,0,1,0-.894,1.814,3.382,3.382,0,0,1,1.127,6.57v1.282H26.456v-1.282a3.382,3.382,0,0,1-1.554-1.131l1.788-1.37a1.127,1.127,0,1,0,.894-1.815,3.382,3.382,0,0,1-1.127-6.569Z" transform="translate(-0.529 -289.462)" fill="#56554d"/>
      <path id="Path_231" data-name="Path 231" d="M4.371,312.129V291.839H2.117v20.291Z" transform="translate(11.411 -271.585)" fill="#56554d"/>
    </g>
  </g>
</svg>
