<svg xmlns="http://www.w3.org/2000/svg" width="12.644" height="16.5" viewBox="0 0 12.644 16.5">
  <path id="Path_99" data-name="Path 99" d="M19.493,23.5a.225.225,0,0,1-.1-.022c-.254-.121-6.226-3-6.226-6.686V8.97a.256.256,0,0,1,.086-.193.227.227,0,0,1,.2-.052,6.609,6.609,0,0,0,5.894-1.67.225.225,0,0,1,.294,0,6.609,6.609,0,0,0,5.894,1.67.227.227,0,0,1,.2.052.256.256,0,0,1,.086.193v7.822c0,3.687-5.972,6.565-6.226,6.686A.225.225,0,0,1,19.493,23.5ZM13.642,9.269v7.524c0,3.128,5.083,5.8,5.851,6.182.768-.385,5.851-3.056,5.851-6.182V9.269a7,7,0,0,1-5.851-1.7A7,7,0,0,1,13.642,9.269Z" transform="translate(-13.171 -7)"/>
</svg>
