<svg xmlns="http://www.w3.org/2000/svg" width="17.5" height="17.5" viewBox="0 0 17.5 17.5">
  <path id="Path_87" data-name="Path 87" d="M15.3,12a1.237,1.237,0,0,0,.247,1.365l.045.045a1.5,1.5,0,1,1-2.122,2.123l-.045-.045a1.248,1.248,0,0,0-2.115.885V16.5a1.5,1.5,0,0,1-3,0v-.068A1.237,1.237,0,0,0,7.5,15.3a1.237,1.237,0,0,0-1.365.247l-.045.045A1.5,1.5,0,1,1,3.968,13.47l.045-.045a1.248,1.248,0,0,0-.885-2.115H3a1.5,1.5,0,1,1,0-3h.067A1.237,1.237,0,0,0,4.2,7.5a1.238,1.238,0,0,0-.247-1.365L3.908,6.09A1.5,1.5,0,1,1,6.03,3.968l.045.045A1.238,1.238,0,0,0,7.44,4.26H7.5a1.237,1.237,0,0,0,.75-1.132V3a1.5,1.5,0,1,1,3,0v.067a1.248,1.248,0,0,0,2.115.885l.045-.045A1.5,1.5,0,1,1,15.532,6.03l-.045.045A1.238,1.238,0,0,0,15.24,7.44V7.5a1.237,1.237,0,0,0,1.132.75H16.5a1.5,1.5,0,1,1,0,3h-.068A1.238,1.238,0,0,0,15.3,12Z" transform="translate(-1 -1)" fill="none" stroke="#000" stroke-linecap="round" stroke-linejoin="round" stroke-width="1"/>
</svg>
