<svg xmlns="http://www.w3.org/2000/svg" width="23.084" height="23.409" viewBox="0 0 23.084 23.409">
  <path id="Path_133" data-name="Path 133" d="M29.4,16.013a.55.55,0,0,0-.01-.1v0a.547.547,0,0,0-.027-.09c0-.009-.008-.017-.011-.026a.553.553,0,0,0-.034-.063c-.005-.008-.01-.016-.015-.024a.554.554,0,0,0-.062-.076l-3.1-3.1a.536.536,0,0,0-.076-.062l-.023-.015a.535.535,0,0,0-.064-.034l-.025-.011a.547.547,0,0,0-.19-.038H17.074a.548.548,0,0,0-.548.548v7.023H7.417V6.379h3.728V10.8a.548.548,0,0,0,.866.446l.924-.658.923.658a.546.546,0,0,0,.636,0l.924-.658.923.658a.548.548,0,0,0,.866-.446V6.379h3.781v5.61h1.1V5.83a.549.549,0,0,0-.548-.548H6.868a.549.549,0,0,0-.548.548V20.5a.549.549,0,0,0,.548.548h9.657v7.1a.548.548,0,0,0,.548.548H28.855a.548.548,0,0,0,.548-.548V16.024S29.4,16.017,29.4,16.013ZM12.241,6.379H16.11V9.732l-.374-.268a.551.551,0,0,0-.636,0l-.924.658-.923-.658a.548.548,0,0,0-.636,0l-.376.266V6.379Zm14.065,7.872,1.225,1.225H26.307Zm2,13.343H17.622V13.475H25.21v2.549a.548.548,0,0,0,.548.548h2.549Z" transform="translate(-6.32 -5.282)"/>
</svg>
