<svg xmlns="http://www.w3.org/2000/svg" width="11.316" height="13.169" viewBox="0 0 11.316 13.169">
  <path id="Path_110" data-name="Path 110" d="M23.284,26.253c-.284-.006-.837-.032-1.116-.052-2.332-.168-3.613-.673-3.852-1.518a4.239,4.239,0,0,1-.019-.84,2.465,2.465,0,0,1,1.129-1.4A10.755,10.755,0,0,1,21.6,21.3l.2-.077.016.053a8.98,8.98,0,0,0,.909,1.933.807.807,0,0,0,.1.133c.01,0,1-1.463,1.01-1.492,0-.007-.023-.013-.056-.013a1.842,1.842,0,0,1-.99-.454,4.747,4.747,0,0,1-.47-.448.571.571,0,0,1,.053-.092.7.7,0,0,0,.118-.392,1.085,1.085,0,0,0-.056-.422.53.53,0,0,0-.157-.238,5.48,5.48,0,0,1-1.351-3.089,4.468,4.468,0,0,1,.082-1.337,2.817,2.817,0,0,1,1.881-2.11,3.373,3.373,0,0,1,2.587.2,2.947,2.947,0,0,1,1.495,2.4,5.638,5.638,0,0,1-.007.933A5.527,5.527,0,0,1,25.609,19.8a.47.47,0,0,0-.132.206,1.61,1.61,0,0,0-.074.479.771.771,0,0,0,.092.412l.045.083-.157.153a3.227,3.227,0,0,1-.5.409,1.7,1.7,0,0,1-.74.3c-.054,0-.1.013-.094.019.009.025,1,1.49,1.008,1.49a5.3,5.3,0,0,0,.487-.819,8.315,8.315,0,0,0,.485-1.143c.021-.063.04-.118.042-.123a2.506,2.506,0,0,1,.481.173,9.139,9.139,0,0,1,2.118,1.155,4.629,4.629,0,0,1,.614.6,1.559,1.559,0,0,1,.294.612,3.9,3.9,0,0,1-.013.881c-.183.634-.908,1.063-2.239,1.323a20.521,20.521,0,0,1-4.046.248Z" transform="translate(-18.285 -13.092)"/>
</svg>
