<svg xmlns="http://www.w3.org/2000/svg" width="279" height="60.001" viewBox="0 0 279 60.001">
  <g id="Union_1" data-name="Union 1" fill="#377d22">
    <path d="M 243.07421875 59.50031661987305 L 1.207964301109314 59.50031661987305 L 30.3541431427002 30.3541374206543 L 30.70771408081055 30.00060081481934 L 30.3541431427002 29.64706420898438 L 1.207071423530579 0.4999936819076538 L 243.57421875 0.4999936819076538 L 248.7941131591797 0.4999936819076538 L 278.2929077148438 29.99881935119629 L 248.793212890625 59.49938583374023 L 243.57421875 59.49938583374023 L 243.07421875 59.49938583374023 L 243.07421875 59.50031661987305 Z" stroke="none"/>
    <path d="M 242.57421875 59.00031661987305 L 242.57421875 58.99938583374023 L 248.5861053466797 58.99938583374023 L 277.5857849121094 29.99882507324219 L 248.5870056152344 0.9999936819076538 L 2.414214372634888 0.9999936819076538 L 31.41482162475586 30.00060081481934 L 2.415107250213623 59.00031661987305 L 242.57421875 59.00031661987305 M 243.57421875 60.0012092590332 L 243.57421875 60.00031661987305 L 0.0008928571478463709 60.00031661987305 L 30.00060653686523 30.00060081481934 L 2.842170943040401e-14 -6.328037670755293e-06 L 249.001220703125 -6.328037670755293e-06 L 279 29.99881553649902 L 249.0003204345703 59.99938583374023 L 243.57421875 60.0012092590332 Z" stroke="none" fill="#377d22"/>
  </g>
</svg>
